<svg width="27" height="19" viewBox="0 0 27 19" fill="none" xmlns="http://www.w3.org/2000/svg">
<g clip-path="url(#clip0_6_835)">
<path d="M8.08673 16.0535L7.39551 14.815L15.4484 0L16.9207 0.0311174L8.08673 16.0535Z" fill="#FB3B33"/>
<path d="M11.1208 18.9194L9.64844 18.8883L18.5444 2.9873L19.2047 4.25378L11.1208 18.9194Z" fill="#FB3B33"/>
<path d="M18.7118 4.13261L16.6567 1.38183C16.4273 1.07377 16.0585 0.908843 15.6772 0.930626C15.296 0.95552 14.9519 1.17645 14.7659 1.51252L7.91571 13.891C7.73593 14.2178 7.72663 14.613 7.89401 14.949L9.26405 17.6998C9.44693 18.067 9.81579 18.3097 10.2249 18.3253C10.2404 18.3253 10.2559 18.3253 10.2745 18.3253C10.6682 18.3253 11.034 18.1199 11.2385 17.7838L18.7738 5.40531C19.0155 5.01012 18.9908 4.50602 18.7118 4.13261Z" fill="#FB3B33"/>
<path d="M11.1215 18.9194H7.30277C5.97922 18.9194 4.77966 18.1944 4.14733 17.0492L0 9.5935L5.17021 0H11.1215L5.89243 9.53438L11.1215 18.9194ZM1.47233 9.5935L5.2601 16.4424C5.68166 17.1955 6.46277 17.6498 7.30277 17.6498H8.92699L4.417 9.56549L8.92699 1.32871H5.95133L1.47233 9.5935Z" fill="#1F1F1F"/>
<path d="M21.3686 18.9194H15.4482L20.6773 9.50637L15.4482 0H19.4468C20.6495 0 21.7622 0.662801 22.3326 1.72079L26.5698 9.59661L21.3686 18.9194ZM17.6428 17.6218H20.6185L25.0974 9.56549L21.1888 2.32447C20.8292 1.68968 20.1659 1.26959 19.4468 1.26959H17.6428L22.1497 9.50637L17.6428 17.6218Z" fill="#1F1F1F"/>
</g>
<defs>
<clipPath id="clip0_6_835">
<rect width="26.5702" height="18.9194" fill="white"/>
</clipPath>
</defs>
</svg>
