<svg width="108" height="20" viewBox="0 0 108 20" fill="none" xmlns="http://www.w3.org/2000/svg">
<g clip-path="url(#clip0_1_91)">
<path d="M6.71878 15.1807L6.14453 14.1518L12.8346 1.844L14.0578 1.86985L6.71878 15.1807Z" fill="#FB3B33"/>
<path d="M9.23879 17.5616L8.01562 17.5358L15.4061 4.32572L15.9546 5.37787L9.23879 17.5616Z" fill="#FB3B33"/>
<path d="M15.5456 5.2771L13.8383 2.99183C13.6477 2.7359 13.3413 2.59889 13.0245 2.61699C12.7078 2.63767 12.422 2.82121 12.2675 3.10041L6.5765 13.3841C6.42715 13.6555 6.41942 13.9838 6.55848 14.263L7.69667 16.5483C7.8486 16.8533 8.15504 17.055 8.49495 17.0679C8.50782 17.0679 8.5207 17.0679 8.53615 17.0679C8.86319 17.0679 9.16705 16.8973 9.337 16.6181L15.5971 6.33442C15.7979 6.0061 15.7773 5.58731 15.5456 5.2771Z" fill="#FB3B33"/>
<path d="M9.23943 17.5617H6.06692C4.96735 17.5617 3.97079 16.9593 3.44547 16.008L0 9.81401L4.29526 1.84403H9.23943L4.89525 9.7649L9.23943 17.5617ZM1.22317 9.81401L4.36993 15.5039C4.72015 16.1295 5.36907 16.5069 6.06692 16.5069H7.41627L3.66951 9.79075L7.41627 2.94788H4.94418L1.22317 9.81401Z" fill="#1F1F1F"/>
<path d="M17.7524 17.5616H12.834L17.1782 9.7416L12.834 1.844H16.1559C17.155 1.844 18.0794 2.39463 18.5533 3.27358L22.0734 9.81657L17.7524 17.5616ZM14.6571 16.4836H17.1292L20.8502 9.79072L17.6031 3.7751C17.3043 3.24773 16.7533 2.89874 16.1559 2.89874H14.6571L18.4013 9.7416L14.6571 16.4836Z" fill="#1F1F1F"/>
</g>
<path d="M30.2473 16C29.9194 16 29.6637 15.9082 29.4801 15.7246C29.2965 15.541 29.2047 15.2853 29.2047 14.9575V3.09646C29.2047 2.75551 29.29 2.4998 29.4605 2.32932C29.644 2.14574 29.8997 2.05394 30.2276 2.05394C30.5554 2.05394 30.8046 2.14574 30.975 2.32932C31.1586 2.4998 31.2504 2.75551 31.2504 3.09646V14.2494H37.3481C37.6366 14.2494 37.8596 14.328 38.0169 14.4854C38.1743 14.6297 38.253 14.8395 38.253 15.1148C38.253 15.3902 38.1743 15.6066 38.0169 15.764C37.8596 15.9213 37.6366 16 37.3481 16H30.2473ZM42.91 16.177C42.2412 16.177 41.638 16.0459 41.1003 15.7836C40.5758 15.5214 40.1627 15.1673 39.8611 14.7214C39.5595 14.2756 39.4087 13.7707 39.4087 13.2069C39.4087 12.4987 39.5858 11.9414 39.9398 11.5349C40.307 11.1153 40.9036 10.8202 41.7298 10.6497C42.569 10.4662 43.6968 10.3744 45.113 10.3744H46.0375V11.5939H45.1327C44.1885 11.5939 43.4411 11.6398 42.8903 11.7316C42.3396 11.8234 41.9462 11.9808 41.7101 12.2037C41.4872 12.4135 41.3757 12.7085 41.3757 13.0888C41.3757 13.5871 41.5462 13.9937 41.8871 14.3084C42.2281 14.61 42.7002 14.7608 43.3034 14.7608C43.7886 14.7608 44.2148 14.6493 44.5819 14.4264C44.9491 14.1904 45.2376 13.8756 45.4474 13.4822C45.6704 13.0888 45.7818 12.6364 45.7818 12.125V9.86295C45.7818 9.11549 45.6245 8.57784 45.3097 8.25001C44.995 7.92217 44.477 7.75825 43.7558 7.75825C43.3362 7.75825 42.8969 7.81071 42.4379 7.91561C41.9921 8.02052 41.5265 8.19755 41.0413 8.44671C40.8184 8.55161 40.6283 8.5844 40.4709 8.54506C40.3135 8.50572 40.189 8.42048 40.0972 8.28935C40.0054 8.1451 39.9529 7.99429 39.9398 7.83693C39.9398 7.66646 39.9792 7.50254 40.0578 7.34518C40.1496 7.18782 40.3004 7.0698 40.5102 6.99112C41.0872 6.71574 41.6577 6.51904 42.2215 6.40102C42.7854 6.283 43.3165 6.22399 43.8148 6.22399C44.6934 6.22399 45.4146 6.36168 45.9785 6.63706C46.5555 6.91244 46.9817 7.33207 47.2571 7.89594C47.5324 8.45982 47.6701 9.18761 47.6701 10.0793V15.1345C47.6701 15.4492 47.5915 15.6984 47.4341 15.882C47.2767 16.0525 47.0473 16.1377 46.7456 16.1377C46.4572 16.1377 46.2277 16.0525 46.0572 15.882C45.8867 15.6984 45.8015 15.4492 45.8015 15.1345V13.856H45.9785C45.8736 14.3412 45.6769 14.7608 45.3884 15.1148C45.113 15.4558 44.7655 15.7181 44.3459 15.9016C43.9263 16.0852 43.4476 16.177 42.91 16.177ZM55.56 16.177C54.7207 16.177 53.9929 15.9672 53.3766 15.5476C52.7603 15.1148 52.3472 14.5444 52.1374 13.8363L52.3538 13.4822V15.1345C52.3538 15.4492 52.2685 15.6984 52.098 15.882C51.9276 16.0525 51.6915 16.1377 51.3899 16.1377C51.0752 16.1377 50.8326 16.0525 50.6621 15.882C50.4917 15.6984 50.4064 15.4492 50.4064 15.1345V2.99811C50.4064 2.67027 50.4917 2.42112 50.6621 2.25064C50.8326 2.08017 51.0752 1.99493 51.3899 1.99493C51.7046 1.99493 51.9472 2.08017 52.1177 2.25064C52.3013 2.42112 52.3931 2.67027 52.3931 2.99811V8.50572H52.1571C52.3669 7.81071 52.7799 7.25995 53.3963 6.85343C54.0126 6.43381 54.7338 6.22399 55.56 6.22399C56.4255 6.22399 57.1729 6.42725 57.8024 6.83376C58.4318 7.24028 58.917 7.81071 59.2579 8.54506C59.612 9.2794 59.789 10.1646 59.789 11.2005C59.789 12.2102 59.612 13.0954 59.2579 13.856C58.917 14.6034 58.4252 15.1804 57.7827 15.5869C57.1532 15.9803 56.4123 16.177 55.56 16.177ZM55.0682 14.6428C55.619 14.6428 56.0976 14.5116 56.5041 14.2494C56.9107 13.9871 57.2254 13.6003 57.4483 13.0888C57.6712 12.5774 57.7827 11.948 57.7827 11.2005C57.7827 10.0728 57.5335 9.22039 57.0352 8.64341C56.55 8.06642 55.8944 7.77792 55.0682 7.77792C54.5306 7.77792 54.0519 7.90906 53.6323 8.17132C53.2258 8.42048 52.9111 8.80077 52.6882 9.31219C52.4652 9.82361 52.3538 10.453 52.3538 11.2005C52.3538 12.3151 52.6029 13.1675 53.1012 13.7576C53.5995 14.3477 54.2552 14.6428 55.0682 14.6428ZM63.3261 16.1377C62.9852 16.1377 62.7163 16.0459 62.5196 15.8623C62.336 15.6787 62.2443 15.4099 62.2443 15.0558V3.23415C62.2443 2.88008 62.336 2.61126 62.5196 2.42767C62.7163 2.23097 62.9917 2.13262 63.3458 2.13262H70.3483C70.6368 2.13262 70.8466 2.20475 70.9777 2.34899C71.122 2.48013 71.1941 2.67683 71.1941 2.9391C71.1941 3.21448 71.122 3.42429 70.9777 3.56854C70.8466 3.71278 70.6368 3.78491 70.3483 3.78491H64.2899V8.21067H69.9549C70.2172 8.21067 70.4204 8.28279 70.5647 8.42704C70.722 8.55817 70.8007 8.75487 70.8007 9.01714C70.8007 9.29252 70.722 9.50233 70.5647 9.64658C70.4204 9.79083 70.2172 9.86295 69.9549 9.86295H64.2899V15.0558C64.2899 15.7771 63.9687 16.1377 63.3261 16.1377ZM76.7245 16.177C75.7541 16.177 74.9148 15.9738 74.2067 15.5673C73.5117 15.1607 72.9675 14.5838 72.5741 13.8363C72.1807 13.0888 71.984 12.2102 71.984 11.2005C71.984 10.4268 72.0955 9.73837 72.3184 9.13516C72.5413 8.53194 72.856 8.01396 73.2625 7.58122C73.6822 7.13537 74.1805 6.80098 74.7575 6.57805C75.3476 6.34201 76.0032 6.22399 76.7245 6.22399C77.6817 6.22399 78.5079 6.42725 79.2029 6.83376C79.911 7.24028 80.4618 7.81726 80.8552 8.56473C81.2486 9.29907 81.4453 10.1777 81.4453 11.2005C81.4453 11.9611 81.3338 12.6495 81.1109 13.2659C80.888 13.8822 80.5667 14.4067 80.1471 14.8395C79.7405 15.2722 79.2422 15.6066 78.6521 15.8426C78.0751 16.0656 77.4326 16.177 76.7245 16.177ZM76.7245 14.6428C77.2621 14.6428 77.7342 14.5116 78.1407 14.2494C78.5472 13.9871 78.862 13.6003 79.0849 13.0888C79.3209 12.5774 79.4389 11.948 79.4389 11.2005C79.4389 10.0728 79.1898 9.22039 78.6915 8.64341C78.1932 8.06642 77.5375 7.77792 76.7245 7.77792C76.1737 7.77792 75.6951 7.90906 75.2886 8.17132C74.882 8.42048 74.5608 8.80077 74.3247 9.31219C74.1018 9.82361 73.9903 10.453 73.9903 11.2005C73.9903 12.3151 74.2395 13.1675 74.7378 13.7576C75.2361 14.3477 75.8983 14.6428 76.7245 14.6428ZM84.6796 16.1377C84.3518 16.1377 84.1026 16.0525 83.9322 15.882C83.7617 15.6984 83.6764 15.4492 83.6764 15.1345V7.2665C83.6764 6.93867 83.7617 6.68952 83.9322 6.51904C84.1026 6.34857 84.3387 6.26333 84.6403 6.26333C84.955 6.26333 85.191 6.34857 85.3484 6.51904C85.5189 6.68952 85.6041 6.93867 85.6041 7.2665V8.70242H85.4074C85.6172 7.91561 86.0041 7.31896 86.5679 6.91244C87.1318 6.50593 87.8531 6.26989 88.7316 6.20432C88.9677 6.19121 89.1513 6.25022 89.2824 6.38135C89.4267 6.51249 89.5053 6.71574 89.5185 6.99112C89.5447 7.2665 89.4857 7.48943 89.3414 7.6599C89.1972 7.81726 88.9742 7.90906 88.6726 7.93528L88.2989 7.97462C87.4465 8.05331 86.7974 8.32213 86.3516 8.7811C85.9057 9.24006 85.6828 9.8695 85.6828 10.6694V15.1345C85.6828 15.4492 85.5976 15.6984 85.4271 15.882C85.2697 16.0525 85.0206 16.1377 84.6796 16.1377ZM95.6435 16.177C94.8567 16.177 94.1945 16.0393 93.6568 15.764C93.1192 15.4886 92.7192 15.0821 92.457 14.5444C92.1947 14.0068 92.0636 13.3511 92.0636 12.5774V7.93528H90.8834C90.6211 7.93528 90.4178 7.86972 90.2736 7.73858C90.1293 7.59434 90.0572 7.40419 90.0572 7.16815C90.0572 6.919 90.1293 6.72886 90.2736 6.59772C90.4178 6.46659 90.6211 6.40102 90.8834 6.40102H92.0636V4.37501C92.0636 4.04717 92.1488 3.79802 92.3193 3.62755C92.5029 3.45707 92.752 3.37184 93.0667 3.37184C93.3815 3.37184 93.6241 3.45707 93.7945 3.62755C93.965 3.79802 94.0502 4.04717 94.0502 4.37501V6.40102H96.3516C96.6139 6.40102 96.8172 6.46659 96.9614 6.59772C97.1057 6.72886 97.1778 6.919 97.1778 7.16815C97.1778 7.40419 97.1057 7.59434 96.9614 7.73858C96.8172 7.86972 96.6139 7.93528 96.3516 7.93528H94.0502V12.4201C94.0502 13.1151 94.1945 13.6396 94.483 13.9937C94.7846 14.3477 95.2698 14.5247 95.9386 14.5247C96.1746 14.5247 96.3779 14.5051 96.5483 14.4657C96.7319 14.4133 96.8827 14.3805 97.0007 14.3674C97.145 14.3674 97.263 14.4198 97.3548 14.5247C97.4466 14.6165 97.4925 14.8001 97.4925 15.0755C97.4925 15.2722 97.4532 15.4558 97.3745 15.6263C97.3089 15.7967 97.1843 15.9082 97.0007 15.9607C96.8434 16.0131 96.627 16.059 96.3516 16.0984C96.0894 16.1508 95.8533 16.177 95.6435 16.177ZM101.133 19.6783C100.897 19.6783 100.7 19.6127 100.543 19.4816C100.398 19.3636 100.313 19.1997 100.287 18.9898C100.274 18.7931 100.313 18.5768 100.405 18.3407L101.743 15.3312V16.177L98.0643 7.62056C97.9725 7.38452 97.9397 7.1616 97.966 6.95178C97.9922 6.74197 98.0905 6.57805 98.261 6.46003C98.4315 6.3289 98.661 6.26333 98.9495 6.26333C99.1986 6.26333 99.3953 6.32234 99.5396 6.44036C99.6838 6.55838 99.8149 6.76164 99.933 7.05013L102.903 14.3871H102.352L105.362 7.05013C105.48 6.74853 105.618 6.54527 105.775 6.44036C105.932 6.32234 106.149 6.26333 106.424 6.26333C106.66 6.26333 106.844 6.3289 106.975 6.46003C107.119 6.57805 107.204 6.74197 107.231 6.95178C107.27 7.14848 107.237 7.36485 107.132 7.60089L102.215 18.9112C102.084 19.2128 101.933 19.416 101.762 19.5209C101.605 19.6258 101.395 19.6783 101.133 19.6783Z" fill="#1F1F1F"/>
<defs>
<clipPath id="clip0_1_91">
<rect width="22.0737" height="15.7176" fill="white" transform="translate(0 1.84403)"/>
</clipPath>
</defs>
</svg>
